<?xml version="1.0" encoding="utf-8"?>
<svg fill="#E74C3C" xmlns="http://www.w3.org/2000/svg" viewBox="6.9 6.2 512 512">
  <g transform="matrix(1, 0, 0, 1, -259.139984, 15.225001)">
    <path d="M 669.041 207.976 C 655.037 138.977 595.038 86.975 522.04 86.975 C 464.042 86.975 414.041 119.973 389.043 167.975 C 329.042 173.977 282.04 224.973 282.04 286.975 C 282.04 352.971 336.044 406.975 402.04 406.975 L 662.04 406.975 C 717.04 406.975 762.04 361.975 762.04 306.974 C 762.04 253.977 721.043 210.975 669.041 207.976 Z M 662.04 366.975 L 402.04 366.975 C 358.036 366.975 322.04 330.979 322.04 286.975 C 322.04 242.975 358.036 206.975 402.04 206.975 L 416.044 206.975 C 429.042 160.975 471.044 126.975 522.04 126.975 C 583.036 126.975 632.04 175.975 632.04 236.975 L 632.04 246.975 L 662.04 246.975 C 695.038 246.975 722.04 273.978 722.04 306.975 C 722.04 339.973 695.038 366.975 662.04 366.975 Z" style="stroke-width: 1;"/>
    <g id="Glyph" style="" transform="matrix(0.324585, 0, 0, 0.324585, 351.884521, 163.343826)">
      <path d="M 633.24 342.746 C 633.24 342.746 754.786 221.192 754.88 221.097 C 786.477 189.499 784.846 136.444 751.599 106.714 C 720.521 78.918 672.099 81.316 641.349 112.097 L 521.974 231.48 L 402.599 112.097 C 371.818 81.316 323.412 78.917 292.35 106.713 C 259.138 136.433 257.571 189.608 289.068 221.089 L 410.708 342.73 C 410.708 342.73 289.248 464.198 289.068 464.378 C 258.264 495.184 259.597 548.796 291.599 578.081 C 322.177 606.081 372.271 603.706 403.224 572.753 L 521.974 454.003 C 521.974 454.003 640.724 572.753 640.724 572.754 C 671.24 603.298 723.099 606.683 754.707 575.832 C 785.499 545.777 785.093 494.591 754.88 464.378 L 633.24 342.746 Z" style="stroke-width: 16;"/>
    </g>
  </g>
</svg>