<?xml version="1.0" encoding="utf-8"?>
<svg fill="#FFFFFF" xmlns="http://www.w3.org/2000/svg" viewBox="6.9 6.2 512 512">
  <path d="M 409.901 223.201 C 395.897 154.202 335.898 102.2 262.9 102.2 C 204.902 102.2 154.901 135.198 129.903 183.2 C 69.902 189.202 22.9 240.198 22.9 302.2 C 22.9 368.196 76.904 422.2 142.9 422.2 L 402.9 422.2 C 457.9 422.2 502.9 377.2 502.9 322.199 C 502.9 269.202 461.903 226.2 409.901 223.201 Z M 402.9 382.2 L 142.9 382.2 C 98.896 382.2 62.9 346.204 62.9 302.2 C 62.9 258.2 98.896 222.2 142.9 222.2 L 156.904 222.2 C 169.902 176.2 211.904 142.2 262.9 142.2 C 323.896 142.2 372.9 191.2 372.9 252.2 L 372.9 262.2 L 402.9 262.2 C 435.898 262.2 462.9 289.203 462.9 322.2 C 462.9 355.198 435.898 382.2 402.9 382.2 Z" style="stroke-width: 1;"/>
</svg>