<?xml version="1.0" encoding="utf-8"?>
<svg xmlns="http://www.w3.org/2000/svg" viewBox="6.9 6.2 512 512">
  <g transform="matrix(1, 0, 0, 1, -259.139984, 15.225001)">
    <path d="M 669.041 207.976 C 655.037 138.977 595.038 86.975 522.04 86.975 C 464.042 86.975 414.041 119.973 389.043 167.975 C 329.042 173.977 282.04 224.973 282.04 286.975 C 282.04 352.971 336.044 406.975 402.04 406.975 L 662.04 406.975 C 717.04 406.975 762.04 361.975 762.04 306.974 C 762.04 253.977 721.043 210.975 669.041 207.976 L 669.041 207.976 Z M 662.04 366.975 L 402.04 366.975 C 358.036 366.975 322.04 330.979 322.04 286.975 C 322.04 242.975 358.036 206.975 402.04 206.975 L 416.044 206.975 C 429.042 160.975 471.044 126.975 522.04 126.975 C 583.036 126.975 632.04 175.975 632.04 236.975 L 632.04 246.975 L 662.04 246.975 C 695.038 246.975 722.04 273.978 722.04 306.975 C 722.04 339.973 695.038 366.975 662.04 366.975 Z" id="object-0" style="stroke-width: 1;"/>
    <ellipse style="stroke: rgb(0, 0, 0); stroke-width: 1;" cx="418.838" cy="303.675" rx="43.419" ry="43.419"/>
    <ellipse style="stroke: rgb(0, 0, 0); stroke-width: 1;" cx="519.4" cy="302.522" rx="43.419" ry="43.419"/>
    <ellipse style="stroke: rgb(0, 0, 0); stroke-width: 1;" cx="618.181" cy="303.695" rx="43.419" ry="43.419"/>
  </g>
</svg>